<svg width="180" height="82" viewBox="0 0 180 82" fill="none" xmlns="http://www.w3.org/2000/svg">
<g filter="url(#filter0_d_2097_2)">
<path fill-rule="evenodd" clip-rule="evenodd" d="M91.2803 26.6357C91.7771 26.6358 92.3301 26.7692 92.7461 27.207C93.1529 27.6353 93.2675 28.1875 93.2676 28.6758C93.2676 28.949 93.2109 29.3428 93.1318 29.7871C93.0483 30.2567 92.9253 30.8608 92.7637 31.5947C92.44 33.0643 91.9566 35.0858 91.3145 37.6543C90.0275 42.802 89.4199 46.1693 89.4199 47.8643C89.4199 48.7322 89.4747 49.3921 89.5693 49.8652C89.6163 50.1001 89.6699 50.2695 89.7197 50.3857C89.7451 50.4449 89.7664 50.4835 89.7812 50.5068L89.8027 50.5371L89.8174 50.5508L89.8311 50.5654C90.054 50.807 90.3058 50.9199 90.6562 50.9199C91.0211 50.9199 91.4891 50.7683 92.0771 50.3037C92.6682 49.8367 93.325 49.0956 94.0381 48.0342L94.041 48.0293L94.2471 47.7188C95.2702 46.1266 96.2034 44.0059 97.0322 41.3281L97.0352 41.3213L97.3799 40.2178C98.1776 37.6252 98.9228 34.912 99.6162 32.0781L99.6182 32.0732L99.8779 31.0332C100.072 30.2412 100.256 29.5792 100.434 29.0566C100.599 28.5688 100.788 28.1133 101.017 27.792C101.502 27.076 102.245 26.7402 103.084 26.7402C103.457 26.7402 103.92 26.8049 104.308 27.0957C104.75 27.4273 104.916 27.9123 104.916 28.3643C104.916 28.5992 104.846 29.0172 104.76 29.4824C104.664 29.9969 104.523 30.6993 104.336 31.5859C103.962 33.3612 103.401 35.8977 102.655 39.1924L102.653 39.2031C101.632 43.5085 100.817 47.0407 100.207 49.8018C100.64 49.3753 100.98 49.0496 101.224 48.833L101.243 48.8154L101.264 48.7988C101.688 48.4593 102.219 48.1641 102.824 48.1641L102.999 48.1689C103.413 48.1933 103.864 48.3111 104.231 48.6396C104.673 49.0343 104.811 49.5685 104.812 50.0479C104.812 50.6542 104.547 51.2061 104.205 51.6758L104.142 51.7637L104.061 51.835C102.282 53.4155 100.562 54.8432 98.9004 56.1191C98.092 60.5292 97.3307 64.0573 96.6123 66.6914C95.8625 69.4749 94.8135 71.8106 93.4424 73.667L93.4434 73.668C92.0212 75.6432 90.0992 76.6836 87.7441 76.6836C86.4467 76.6836 85.2602 76.3358 84.2178 75.627L84.21 75.6211L84.2021 75.6162C83.2417 74.9359 82.4935 74.0686 81.9688 73.0244C81.4535 72.0336 81.1797 71.0106 81.1797 69.9639C81.1797 67.6571 81.8081 65.5683 83.0723 63.7295C83.9986 62.379 85.4903 60.9994 87.4746 59.582C88.3542 58.9268 89.0602 58.413 89.5889 58.043C90.0057 57.7512 90.3732 57.5063 90.6357 57.3662L94.8193 54.2891C94.9405 53.84 95.1569 53.1003 95.4648 52.0771C95.2935 52.2842 95.1212 52.4857 94.9453 52.6797L94.9463 52.6807C93.4826 54.3638 91.8786 55.416 90.1357 55.416C88.5109 55.4159 87.1501 54.7546 86.1309 53.4805L86.1201 53.4668L86.1094 53.4521C85.1442 52.1513 84.7159 50.4615 84.7158 48.4883C84.7158 45.4359 85.5794 40.7335 87.2451 34.4521L87.2461 34.4502L87.79 32.3857C87.9452 31.7889 88.0749 31.283 88.1777 30.8672C88.2808 30.4504 88.3554 30.1306 88.4043 29.9043C88.4235 29.8154 88.4364 29.7453 88.4463 29.6924C88.4197 29.5283 88.4082 29.3621 88.4082 29.1963C88.4082 28.8218 88.4872 28.3933 88.7637 28.0244C89.3861 27.1826 90.2295 26.6357 91.2803 26.6357ZM92.666 60.9131L91.6836 61.5889C90.4268 62.4381 89.404 63.1928 88.6084 63.8545L88.3447 64.0938C87.74 64.6683 87.1677 65.3846 86.6328 66.2539L86.4473 66.6006C86.0426 67.4254 85.832 68.3671 85.832 69.4443C85.8321 70.5504 86.1617 71.3071 86.7471 71.8408L86.8672 71.9443L86.8867 71.96L86.9053 71.9766C86.9967 72.0588 87.2325 72.1885 87.7959 72.1885C88.4132 72.1885 89.1299 71.8461 89.9297 70.7617C90.7321 69.6738 91.5124 67.9673 92.2432 65.5732L93.4219 61.0654L93.584 60.2588C93.276 60.4811 92.9705 60.6999 92.666 60.9131ZM84.8535 69.9619C84.8575 70.0073 84.8631 70.0521 84.8682 70.0967C84.8626 70.047 84.8568 69.9969 84.8525 69.9463L84.8535 69.9619ZM86.5283 52.2539C86.548 52.29 86.5695 52.3249 86.5898 52.3604C86.5615 52.311 86.5328 52.2616 86.5059 52.2109L86.5283 52.2539ZM90.9268 35.0488C91.0007 34.7452 91.0728 34.4524 91.1406 34.1699L91.1855 33.9805C91.1041 34.3208 91.0174 34.6768 90.9268 35.0488ZM91.5117 27.6523C91.5847 27.6633 91.6524 27.68 91.7148 27.7021C91.6215 27.669 91.5164 27.6478 91.3994 27.6396L91.5117 27.6523Z" fill="#2C2C2C"/>
<path fill-rule="evenodd" clip-rule="evenodd" d="M42.8066 26.4277C44.1652 26.4277 45.277 27.0151 46.0498 28.1279C46.8244 29.1607 47.1865 30.4037 47.1865 31.7959C47.1865 34.0955 46.5801 36.1408 45.3379 37.8877L45.3369 37.8867C44.1705 39.5758 42.6032 40.9672 40.6602 42.0693L40.6611 42.0703C39.159 42.952 37.3732 43.824 35.3115 44.6904L35.2266 47.7744C35.2281 49.153 35.444 50.0219 35.7441 50.5166C35.9966 50.9324 36.3281 51.1279 36.8789 51.1279C37.476 51.1279 38.0369 51.0146 38.5703 50.79L38.5791 50.7871L38.5869 50.7832C39.2179 50.5308 39.9137 50.1772 40.6748 49.7139L40.6846 49.708L41.043 49.501C41.3916 49.3057 41.7128 49.1446 42.0029 49.0225C42.3665 48.8694 42.7763 48.7363 43.1709 48.7363C43.6347 48.7364 44.1623 48.8616 44.5605 49.2832C44.9488 49.6943 45.0547 50.2196 45.0547 50.6719C45.0547 51.2192 44.7954 51.6845 44.5078 52.041C44.2132 52.4063 43.8097 52.7567 43.3389 53.0957L43.3379 53.0947C42.4262 53.7759 41.3628 54.3512 40.1572 54.8262L40.1445 54.8311L40.1328 54.8359C38.9366 55.2709 37.8583 55.5195 36.9307 55.5195C35.7371 55.5195 34.6775 55.3367 33.8447 54.874L33.8271 54.8643L33.8096 54.8535C33.0006 54.3592 32.3787 53.6334 31.9277 52.7314C31.1147 51.2087 30.7305 49.4169 30.7305 47.3965C30.7305 43.9661 31.249 40.7024 32.291 37.6123C33.3292 34.4989 34.7551 31.8514 36.584 29.6934L36.5869 29.6895L36.9268 29.3076C38.6419 27.4544 40.6046 26.4277 42.8066 26.4277ZM44.0098 50.9297C44.0292 50.871 44.0432 50.8139 44.0498 50.7578L44.0342 50.8447C44.0277 50.8728 44.0193 50.901 44.0098 50.9297ZM42.0791 30.8721C41.8845 30.8721 41.5511 30.9635 41.0557 31.3496C40.5659 31.7313 39.9947 32.3414 39.3477 33.2207L39.334 33.2402C38.0552 34.8933 36.988 37.0826 36.1572 39.8438C37.5848 39.2213 38.7082 38.6637 39.5361 38.167L39.9277 37.916C40.8103 37.3156 41.4721 36.6013 41.9355 35.7773L41.9404 35.7676L41.9473 35.7578C42.4847 34.8526 42.7949 33.5912 42.7949 31.9004C42.7949 31.3424 42.6732 31.1092 42.6025 31.0254C42.559 30.9739 42.4488 30.8722 42.0791 30.8721ZM38.792 39.7139C38.8749 39.6715 38.9573 39.6316 39.0371 39.5898L39.1055 39.5527C39.0038 39.6063 38.8989 39.6593 38.792 39.7139ZM38.0225 33.3438C37.9935 33.3861 37.9662 33.4298 37.9375 33.4727C37.9713 33.4221 38.004 33.3711 38.0381 33.3213L38.0225 33.3438ZM43.1865 27.4482C43.2456 27.4548 43.3039 27.463 43.3613 27.4727C43.2439 27.4529 43.1232 27.4393 42.999 27.4326L43.1865 27.4482Z" fill="#2C2C2C"/>
<path fill-rule="evenodd" clip-rule="evenodd" d="M171.791 26.4277C173.15 26.4277 174.261 27.0151 175.034 28.1279C175.809 29.1607 176.171 30.4037 176.171 31.7959C176.171 34.0955 175.565 36.1408 174.322 37.8877L174.321 37.8867C173.155 39.5758 171.588 40.9672 169.645 42.0693L169.646 42.0703C168.143 42.952 166.358 43.824 164.296 44.6904L164.211 47.7744C164.212 49.153 164.428 50.0219 164.729 50.5166C164.981 50.9324 165.312 51.1279 165.863 51.1279C166.46 51.1279 167.021 51.0146 167.555 50.79L167.563 50.7871L167.571 50.7832C168.202 50.5308 168.898 50.1772 169.659 49.7139L169.669 49.708L170.027 49.501C170.376 49.3057 170.697 49.1446 170.987 49.0225C171.351 48.8694 171.761 48.7363 172.155 48.7363C172.619 48.7364 173.147 48.8616 173.545 49.2832C173.933 49.6943 174.039 50.2196 174.039 50.6719C174.039 51.2192 173.78 51.6845 173.492 52.041C173.198 52.4063 172.794 52.7567 172.323 53.0957L172.322 53.0947C171.411 53.7759 170.347 54.3512 169.142 54.8262L169.129 54.8311L169.117 54.8359C167.921 55.2709 166.843 55.5195 165.915 55.5195C164.721 55.5195 163.662 55.3367 162.829 54.874L162.812 54.8643L162.794 54.8535C161.985 54.3592 161.363 53.6334 160.912 52.7314C160.099 51.2087 159.715 49.4169 159.715 47.3965C159.715 43.9661 160.233 40.7024 161.275 37.6123C162.314 34.4989 163.739 31.8514 165.568 29.6934L165.571 29.6895L165.911 29.3076C167.626 27.4544 169.589 26.4277 171.791 26.4277ZM161.683 52.0439C161.723 52.125 161.764 52.2051 161.807 52.2842C161.761 52.1997 161.717 52.114 161.675 52.0273L161.683 52.0439ZM173.019 50.8447C173.012 50.8728 173.004 50.901 172.994 50.9297C173.014 50.871 173.028 50.8139 173.034 50.7578L173.019 50.8447ZM171.063 30.8721C170.869 30.8721 170.535 30.9635 170.04 31.3496C169.55 31.7313 168.979 32.3414 168.332 33.2207L168.318 33.2402C167.04 34.8933 165.972 37.0826 165.142 39.8438C166.569 39.2213 167.693 38.6637 168.521 38.167L168.912 37.916C169.795 37.3156 170.456 36.6013 170.92 35.7773L170.925 35.7676L170.932 35.7578C171.469 34.8526 171.779 33.5912 171.779 31.9004C171.779 31.3424 171.658 31.1092 171.587 31.0254C171.543 30.9739 171.433 30.8722 171.063 30.8721ZM167.776 39.7139C167.859 39.6715 167.942 39.6316 168.021 39.5898L168.09 39.5527C167.988 39.6063 167.883 39.6593 167.776 39.7139ZM167.007 33.3438C166.978 33.3861 166.951 33.4298 166.922 33.4727C166.956 33.4221 166.988 33.3711 167.022 33.3213L167.007 33.3438ZM172.171 27.4482C172.23 27.4548 172.288 27.463 172.346 27.4727C172.228 27.4529 172.108 27.4393 171.983 27.4326L172.171 27.4482Z" fill="#2C2C2C"/>
<path fill-rule="evenodd" clip-rule="evenodd" d="M59.3545 2.76758C59.897 2.76767 60.4804 2.921 60.9111 3.39258C61.3262 3.84723 61.4463 4.43248 61.4463 4.96387V5.04004L61.2266 6.46777L61.2256 6.4707C61.0497 7.59602 60.8559 8.65449 60.6436 9.64551L60.6426 9.65332C60.4366 10.5801 60.0567 12.3921 59.502 15.0967L59.5 15.1055C58.5642 19.4725 57.368 25.0876 55.9121 31.9512C54.4906 38.816 53.5943 43.3717 53.2168 45.6367L53.2139 45.6494C52.757 48.1796 52.5537 49.6385 52.5537 50.1523C52.5538 50.4558 52.6402 50.7132 52.8223 50.9561L52.9297 51.0791C53.0285 51.1713 53.1026 51.1797 53.166 51.1797C53.5229 51.1797 53.8362 51.1166 54.1172 51.002C54.5598 50.7976 54.8346 50.6696 54.9551 50.6094L55.8184 50.1523L55.8281 50.1465L55.8389 50.1416C55.9885 50.0668 56.1293 50.0006 56.2529 49.9512C56.3144 49.9266 56.3855 49.9011 56.46 49.8799C56.5193 49.8629 56.6488 49.8282 56.8057 49.8281L57.0088 49.835C57.4856 49.8668 57.9823 50.0184 58.3711 50.4072C58.8152 50.8515 58.9501 51.4363 58.9502 51.9717C58.9502 53.2779 58.0732 54.1615 56.915 54.6992L56.8877 54.7109C55.763 55.1929 54.4607 55.416 53.0098 55.416C51.5896 55.416 50.3463 55.0377 49.4434 54.1348L49.4336 54.126L49.4238 54.1162C48.5921 53.2383 48.2139 52.1083 48.2139 50.8281C48.2139 50.0991 48.2445 49.4131 48.3066 48.7715L48.3789 48.1445C48.4855 47.3286 48.6791 46.0855 48.9561 44.4238V44.418L49.4033 41.9053C49.8797 39.3081 50.4443 36.459 51.0957 33.3584L52.4463 26.8096L52.4473 26.8076L54.4238 17.3906C54.9959 14.6753 55.481 12.3832 55.8799 10.5146C56.6697 6.81474 57.1326 4.71024 57.252 4.3125L57.2559 4.30176L57.3115 4.14062C57.4548 3.76768 57.6867 3.42256 58.0381 3.16699C58.4383 2.87606 58.902 2.76758 59.3545 2.76758ZM51.583 50.5322C51.5857 50.5493 51.5907 50.566 51.5938 50.583C51.5893 50.5583 51.5838 50.5338 51.5801 50.5088L51.583 50.5322ZM59.6104 3.78711C59.6449 3.79253 59.6785 3.79886 59.7109 3.80664C59.641 3.78987 59.5662 3.7783 59.4863 3.77246L59.6104 3.78711Z" fill="#2C2C2C"/>
<path fill-rule="evenodd" clip-rule="evenodd" d="M157.921 2.76758C158.463 2.76767 159.047 2.921 159.478 3.39258C159.893 3.84723 160.013 4.43248 160.013 4.96387V5.04004L159.793 6.46777L159.792 6.4707C159.616 7.59602 159.422 8.65449 159.21 9.64551L159.209 9.65332C159.003 10.5801 158.623 12.3921 158.068 15.0967L158.066 15.1055C157.131 19.4725 155.934 25.0876 154.479 31.9512C153.057 38.816 152.161 43.3717 151.783 45.6367L151.78 45.6494C151.323 48.1796 151.12 49.6385 151.12 50.1523C151.12 50.4558 151.207 50.7132 151.389 50.9561L151.496 51.0791C151.595 51.1713 151.669 51.1797 151.732 51.1797C152.089 51.1797 152.403 51.1166 152.684 51.002C153.126 50.7976 153.401 50.6696 153.521 50.6094L154.385 50.1523L154.395 50.1465L154.405 50.1416C154.555 50.0668 154.696 50.0006 154.819 49.9512C154.881 49.9266 154.952 49.9011 155.026 49.8799C155.086 49.8629 155.215 49.8282 155.372 49.8281L155.575 49.835C156.052 49.8668 156.549 50.0184 156.938 50.4072C157.382 50.8515 157.517 51.4363 157.517 51.9717C157.517 53.2779 156.64 54.1615 155.481 54.6992L155.454 54.7109C154.329 55.1929 153.027 55.416 151.576 55.416C150.156 55.416 148.913 55.0377 148.01 54.1348L148 54.126L147.99 54.1162C147.158 53.2383 146.78 52.1083 146.78 50.8281C146.78 50.0991 146.811 49.4131 146.873 48.7715L146.945 48.1445C147.052 47.3286 147.246 46.0855 147.522 44.4238V44.418L147.97 41.9053C148.446 39.3081 149.011 36.459 149.662 33.3584L151.013 26.8096L151.014 26.8076L152.99 17.3906C153.562 14.6753 154.047 12.3832 154.446 10.5146C155.236 6.81474 155.699 4.71024 155.818 4.3125L155.822 4.30176L155.878 4.14062C156.021 3.76768 156.253 3.42256 156.604 3.16699C157.005 2.87606 157.468 2.76758 157.921 2.76758ZM150.149 50.5322C150.152 50.551 150.158 50.5693 150.161 50.5879C150.156 50.5616 150.15 50.5354 150.146 50.5088L150.149 50.5322ZM158.177 3.78711C158.211 3.79253 158.245 3.79886 158.277 3.80664C158.207 3.78987 158.133 3.7783 158.053 3.77246L158.177 3.78711Z" fill="#2C2C2C"/>
<path fill-rule="evenodd" clip-rule="evenodd" d="M115.716 19.8242C116.18 19.8242 116.701 19.96 117.087 20.3936C117.452 20.8048 117.548 21.3208 117.548 21.7598V22.1709L117.528 22.2686C117.397 22.924 117.272 23.4519 117.154 23.8242L116.52 27H119.044C119.723 27 120.303 27.0264 120.77 27.0859C121.137 27.1328 121.556 27.213 121.9 27.3955L122.043 27.4795L122.065 27.4951L122.088 27.5117C122.585 27.8844 122.904 28.4269 122.904 29.0918C122.904 29.5269 122.8 29.9737 122.522 30.3623C122.244 30.7518 121.855 30.9946 121.44 31.1328L121.42 31.1396L121.398 31.1455C120.765 31.3266 119.789 31.3916 118.576 31.3916C117.686 31.3916 116.724 31.3585 115.691 31.2939C115.465 32.3816 115.082 34.1065 114.541 36.4609L113.726 39.9795V39.9814C113.173 42.3312 112.761 44.2382 112.487 45.707C112.21 47.1985 112.088 48.1744 112.088 48.6963C112.088 49.3399 112.125 49.8356 112.189 50.1992C112.221 50.3796 112.258 50.5136 112.292 50.6094C112.309 50.6562 112.324 50.6904 112.336 50.7139C112.34 50.7211 112.343 50.7276 112.346 50.7324C112.394 50.7452 112.489 50.7636 112.647 50.7637C112.953 50.7637 113.16 50.6911 113.313 50.5859C113.614 50.3661 113.937 50.0634 114.276 49.6621C114.666 49.1688 115.031 48.7598 115.369 48.4639L115.533 48.3301C115.926 48.0353 116.39 47.8516 116.912 47.8516C117.413 47.8516 117.972 47.9783 118.399 48.4053C118.826 48.8321 118.952 49.391 118.952 49.8916C118.952 50.3506 118.742 50.7784 118.547 51.0996C118.386 51.3653 118.176 51.6514 117.928 51.9551L117.667 52.2646C116.95 53.089 116.249 53.7737 115.565 54.3076L115.566 54.3086C114.75 54.9718 113.606 55.208 112.336 55.208C110.959 55.208 109.746 54.8521 108.873 53.9795L108.853 53.959C107.986 53.0415 107.696 51.5737 107.696 49.8916C107.696 48.9169 107.808 47.817 108.023 46.5986L108.488 43.6523L108.494 43.6162L108.502 43.5801L109.074 41.1357L109.384 39.7432L109.387 39.7295L110.058 36.8867C110.138 36.3903 110.299 35.6482 110.532 34.6816L110.787 33.6582L111.253 31.4355L111.318 31.1064C110.478 31.1428 109.688 31.2173 108.95 31.3291L108.801 31.3516L108.651 31.3291C108.212 31.2632 107.745 31.1194 107.372 30.8027C106.959 30.4515 106.76 29.9697 106.76 29.4561C106.76 28.8166 107.024 28.2595 107.429 27.8037L107.596 27.6309C107.999 27.2473 108.497 27.0045 109.073 26.9521L109.133 26.9463L109.191 26.9482L112.092 27.0283C112.093 27.0204 112.096 27.0107 112.099 26.998C112.098 27.0003 112.1 26.9917 112.101 26.9893L112.103 26.9814C112.105 26.9703 112.101 26.9838 112.104 26.9727C112.104 26.97 112.106 26.9617 112.105 26.9639C112.106 26.9602 112.112 26.9337 112.112 26.9307C112.113 26.9253 112.115 26.9184 112.116 26.9131C112.115 26.9209 112.118 26.901 112.119 26.8955L112.123 26.8779C112.123 26.8766 112.124 26.8753 112.124 26.874L112.125 26.8691C112.127 26.8598 112.126 26.8586 112.126 26.8604C112.126 26.859 112.127 26.8578 112.127 26.8564L112.128 26.8516L112.132 26.834L112.134 26.8242L112.138 26.8066C112.147 26.7578 112.131 26.8369 112.141 26.7881C112.14 26.7936 112.144 26.773 112.143 26.7793L112.145 26.7695C112.149 26.7449 112.143 26.7759 112.148 26.751L112.15 26.7412C112.151 26.7399 112.151 26.7386 112.151 26.7373L112.156 26.7129C112.157 26.7116 112.157 26.7103 112.157 26.709L112.16 26.6943C112.17 26.643 112.153 26.7262 112.163 26.6748L112.173 26.626C112.173 26.6229 112.175 26.6193 112.176 26.6162C112.184 26.5765 112.172 26.6354 112.18 26.5957C112.256 25.8634 112.4 25.0414 112.609 24.1348L112.694 23.7822C112.9 22.9692 113.151 22.2262 113.452 21.5576C113.848 20.6116 114.57 19.8243 115.716 19.8242ZM111.117 49.6221C111.121 49.679 111.128 49.7345 111.133 49.7891C111.127 49.7178 111.119 49.6447 111.114 49.5693L111.117 49.6221ZM115.632 30.2891C115.667 30.2913 115.702 30.2927 115.737 30.2949L114.884 30.2363L115.632 30.2891ZM107.765 29.3428C107.763 29.3661 107.762 29.3896 107.762 29.4131C107.763 29.3843 107.764 29.3557 107.767 29.3271L107.765 29.3428ZM107.884 28.9033C107.879 28.9146 107.874 28.9262 107.869 28.9375C107.885 28.9002 107.903 28.8631 107.923 28.8262L107.884 28.9033Z" fill="#2C2C2C"/>
<path fill-rule="evenodd" clip-rule="evenodd" d="M76.709 26.792C77.6399 26.792 78.5069 26.9937 79.1904 27.5195C79.8757 28.0468 80.249 28.8034 80.3896 29.665C80.4234 29.8036 80.4517 29.9442 80.4756 30.0869C80.9174 30.1345 81.3666 30.2857 81.7285 30.6318C82.1909 31.0742 82.3369 31.6649 82.3369 32.2119V32.5537L82.3018 32.6836L81.6777 34.9707L81.6758 34.9775C81.2657 36.4422 80.8352 38.5528 80.3867 41.3262L80.1934 42.5557C79.7208 45.6433 79.4705 48.2276 79.4316 50.3184L79.459 50.335L79.4668 50.3389L79.4746 50.3438C80.3489 50.8902 81.1924 51.6703 81.1924 52.752C81.1924 53.2814 81.0241 53.7631 80.7197 54.1748L80.5811 54.3467C80.1411 54.8494 79.5507 55.1035 78.8926 55.1035C77.7019 55.1035 76.7 54.4697 75.8887 53.4961L75.874 53.4785L75.8604 53.4609C75.0864 52.4425 74.6689 51.3151 74.6689 50.0996C74.669 48.8353 74.8528 47.1167 75.2139 44.957C75.0853 45.146 74.9564 45.3367 74.8232 45.5264C73.6253 47.2464 72.4362 48.7981 71.2559 50.1797L70.75 50.7617C69.4485 52.2345 68.417 53.2791 67.6924 53.8076L67.6934 53.8086C66.6615 54.5927 65.4976 55 64.2285 55C63.0162 55 61.9506 54.6053 61.2217 53.6846C60.528 52.8084 60.2646 51.6089 60.2646 50.2559C60.2647 47.5994 61.2629 44.4174 63.1299 40.7539C65.006 37.0379 67.2431 33.8019 69.8467 31.0557L69.8516 31.0508L70.333 30.5596C71.4463 29.4461 72.49 28.5661 73.4629 27.9395C74.5638 27.2304 75.6575 26.792 76.709 26.792ZM62.4365 53.4844C62.4517 53.4957 62.4679 53.5056 62.4834 53.5166C62.4632 53.5023 62.4426 53.4886 62.4229 53.4736L62.4365 53.4844ZM76.5762 31.6738C76.436 31.7083 76.1993 31.7928 75.8467 31.9912L75.834 31.999L75.8213 32.0059C74.6231 32.635 73.0826 34.0416 71.1992 36.3691L71.2002 36.3701C69.3761 38.6672 67.8759 41.095 66.6973 43.6543L66.6934 43.6621L66.6904 43.6689C65.4757 46.1969 64.8925 48.377 64.8662 50.2295C64.8683 50.2275 64.8711 50.2265 64.873 50.2246L64.9014 50.1973L64.9316 50.1709C68.3439 47.2604 71.4069 43.1981 74.1025 37.9434L74.1064 37.9375L74.1094 37.9307C75.2944 35.7 75.9946 34.2937 76.248 33.6602L76.2559 33.6406L76.2646 33.6221C76.5275 33.038 76.6445 32.5009 76.6445 32.0039C76.6445 31.8709 76.619 31.7655 76.5762 31.6738Z" fill="#2C2C2C"/>
<path fill-rule="evenodd" clip-rule="evenodd" d="M138.357 26.792C139.288 26.792 140.155 26.9937 140.839 27.5195C141.524 28.0468 141.897 28.8034 142.038 29.665C142.072 29.8036 142.1 29.9442 142.124 30.0869C142.566 30.1345 143.015 30.2857 143.377 30.6318C143.839 31.0742 143.985 31.6649 143.985 32.2119V32.5537L143.95 32.6836L143.326 34.9707L143.324 34.9775C142.914 36.4422 142.484 38.5528 142.035 41.3262L141.842 42.5557C141.369 45.6433 141.119 48.2276 141.08 50.3184L141.107 50.335L141.115 50.3389L141.123 50.3438C141.997 50.8902 142.841 51.6703 142.841 52.752C142.841 53.2814 142.673 53.7631 142.368 54.1748L142.229 54.3467C141.79 54.8494 141.199 55.1035 140.541 55.1035C139.35 55.1035 138.348 54.4697 137.537 53.4961L137.522 53.4785L137.509 53.4609C136.735 52.4425 136.317 51.3151 136.317 50.0996C136.317 48.8353 136.501 47.1167 136.862 44.957C136.734 45.146 136.605 45.3367 136.472 45.5264C135.274 47.2464 134.085 48.7981 132.904 50.1797L132.398 50.7617C131.097 52.2345 130.065 53.2791 129.341 53.8076L129.342 53.8086C128.31 54.5927 127.146 55 125.877 55C124.665 55 123.599 54.6053 122.87 53.6846C122.176 52.8084 121.913 51.6089 121.913 50.2559C121.913 47.5994 122.911 44.4174 124.778 40.7539C126.654 37.0379 128.892 33.8019 131.495 31.0557L131.5 31.0508L131.981 30.5596C133.095 29.4461 134.138 28.5661 135.111 27.9395C136.212 27.2304 137.306 26.792 138.357 26.792ZM138.225 31.6738C138.084 31.7083 137.848 31.7928 137.495 31.9912L137.482 31.999L137.47 32.0059C136.272 32.635 134.731 34.0416 132.848 36.3691L132.849 36.3701C131.025 38.6672 129.524 41.095 128.346 43.6543L128.342 43.6621L128.339 43.6689C127.124 46.1969 126.541 48.377 126.515 50.2295C126.517 50.2275 126.52 50.2265 126.521 50.2246L126.55 50.1973L126.58 50.1709C129.992 47.2604 133.055 43.1981 135.751 37.9434L135.755 37.9375L135.758 37.9307C136.943 35.7 137.643 34.2937 137.896 33.6602L137.904 33.6406L137.913 33.6221C138.176 33.038 138.293 32.5009 138.293 32.0039C138.293 31.8709 138.267 31.7655 138.225 31.6738Z" fill="#2C2C2C"/>
</g>
<g filter="url(#filter1_d_2097_2)">
<path fill-rule="evenodd" clip-rule="evenodd" d="M16.9902 1.47266C17.44 1.50989 17.7473 1.7777 17.9238 1.98535L17.9961 2.07617L18.085 2.20703C18.2509 2.4766 18.3295 2.77081 18.3477 3.06055C18.706 3.0399 19.0673 3.02833 19.4316 3.02832C23.0243 3.02832 25.9757 4.18627 28.1699 6.56934C30.3738 8.92793 31.4042 12.2403 31.4043 16.3516C31.4043 19.5006 30.7697 22.3591 29.4805 24.9053L29.4814 24.9062C28.2962 27.3116 26.5801 29.2352 24.3467 30.6621L23.8926 30.9414C21.6862 32.2451 19.1569 32.9482 16.3311 33.082C16.3802 36.6589 16.7012 39.9037 17.29 42.8203L17.4209 43.4082C18.0883 46.3001 19.007 48.5496 20.1455 50.2002L20.3691 50.5049C21.4931 51.9709 22.7045 52.5839 24.0078 52.584C24.9941 52.584 25.7607 52.4564 26.3389 52.2393C26.9656 51.9691 27.7084 51.5777 28.5732 51.0596C28.8669 50.6995 29.2924 50.4521 29.832 50.4521L29.9609 50.457C30.5612 50.5033 30.9871 50.8704 31.2578 51.2725C31.5884 51.6809 31.7676 52.1667 31.7676 52.7002C31.7675 53.3089 31.5435 53.8588 31.1113 54.291L31.0586 54.3428L31 54.3867C30.0017 55.1274 28.9874 55.7115 27.957 56.127L27.5146 56.2939C26.3053 56.7231 24.9035 56.9238 23.332 56.9238C20.8797 56.9238 18.7688 55.7382 17.0059 53.5889L16.6572 53.1455L16.6475 53.1318C14.8646 50.6804 13.6803 47.4203 13.04 43.417C12.4723 40.8058 12.0974 37.974 11.9121 34.9238L8.13965 53.4199L8.12598 53.4873L8.10254 53.5527C7.92999 54.0416 7.6192 54.4579 7.15918 54.7373C6.71518 55.0069 6.20757 55.1035 5.7041 55.1035C5.22037 55.1035 4.67981 55.0252 4.23633 54.7168C3.72705 54.3625 3.50793 53.8231 3.50781 53.2725V53.1699L3.52832 53.0703L5.17969 45.1123C5.91647 41.5757 6.8399 37.1555 7.94922 31.8516L9.52539 24.3291C10.7523 18.5105 11.8039 13.6312 12.6738 9.69043C12.6082 9.75864 12.5413 9.82946 12.4736 9.90332C12.1765 10.2686 11.8661 10.5863 11.5371 10.8213L11.4961 10.8516L11.4521 10.876C10.9887 11.1408 10.4747 11.2094 9.97266 11.1592L9.80566 11.1426L9.65332 11.0723C9.29139 10.9052 8.96098 10.6536 8.72656 10.293C8.49123 9.93091 8.39649 9.52587 8.39648 9.12402C8.39648 7.75081 9.19883 6.62088 10.4121 5.7207C11.5025 4.88058 12.8447 4.25477 14.4092 3.81836C14.6305 3.26749 14.8965 2.78423 15.2256 2.40723L15.3711 2.23926C15.7294 1.84794 16.2329 1.46786 16.8838 1.46777L16.9902 1.47266ZM20.7842 6.90039C19.4641 6.90039 18.4022 6.98831 17.5791 7.14648L13.376 27.749C13.468 27.7351 13.563 27.7275 13.6602 27.7275L13.7666 27.7324C13.8692 27.7414 13.9575 27.7612 14.0039 27.7715C14.0895 27.7905 14.1857 27.816 14.2861 27.8447C14.3872 27.8736 14.5033 27.909 14.6338 27.9502L15.0684 28.0918L15.0762 28.0938L15.085 28.0967C16.2649 28.5131 16.9688 28.664 17.2998 28.6641C18.4248 28.6641 19.6156 28.3544 20.8828 27.6904L21.3652 27.417C22.4705 26.7546 23.4407 25.9222 24.2793 24.916C26.2694 22.4386 27.2725 19.513 27.2725 16.0918C27.2724 14.5523 27.0475 13.1439 26.6084 11.8584L26.4072 11.3154C25.8738 9.98187 25.1493 8.95049 24.248 8.18652L24.0654 8.03711C23.0978 7.27472 22.0155 6.90043 20.7842 6.90039ZM21.4365 5.93164C21.3985 5.92795 21.3605 5.92393 21.3223 5.9209L21.3057 5.91992C21.3494 5.92329 21.393 5.92741 21.4365 5.93164ZM30.7451 52.9502C30.7441 52.9555 30.7413 52.9605 30.7402 52.9658C30.742 52.9573 30.7445 52.949 30.7461 52.9404L30.7451 52.9502Z" fill="#DFC639"/>
</g>
<defs>
<filter id="filter0_d_2097_2" x="27.7305" y="1.76758" width="151.441" height="79.916" filterUnits="userSpaceOnUse" color-interpolation-filters="sRGB">
<feFlood flood-opacity="0" result="BackgroundImageFix"/>
<feColorMatrix in="SourceAlpha" type="matrix" values="0 0 0 0 0 0 0 0 0 0 0 0 0 0 0 0 0 0 127 0" result="hardAlpha"/>
<feOffset dy="2"/>
<feGaussianBlur stdDeviation="1.5"/>
<feComposite in2="hardAlpha" operator="out"/>
<feColorMatrix type="matrix" values="0 0 0 0 0 0 0 0 0 0 0 0 0 0 0 0 0 0 0.25 0"/>
<feBlend mode="normal" in2="BackgroundImageFix" result="effect1_dropShadow_2097_2"/>
<feBlend mode="normal" in="SourceGraphic" in2="effect1_dropShadow_2097_2" result="shape"/>
</filter>
<filter id="filter1_d_2097_2" x="0.507812" y="0.467773" width="34.2598" height="61.4561" filterUnits="userSpaceOnUse" color-interpolation-filters="sRGB">
<feFlood flood-opacity="0" result="BackgroundImageFix"/>
<feColorMatrix in="SourceAlpha" type="matrix" values="0 0 0 0 0 0 0 0 0 0 0 0 0 0 0 0 0 0 127 0" result="hardAlpha"/>
<feOffset dy="2"/>
<feGaussianBlur stdDeviation="1.5"/>
<feComposite in2="hardAlpha" operator="out"/>
<feColorMatrix type="matrix" values="0 0 0 0 0 0 0 0 0 0 0 0 0 0 0 0 0 0 0.25 0"/>
<feBlend mode="normal" in2="BackgroundImageFix" result="effect1_dropShadow_2097_2"/>
<feBlend mode="normal" in="SourceGraphic" in2="effect1_dropShadow_2097_2" result="shape"/>
</filter>
</defs>
</svg>
