<svg width="795" height="136" viewBox="0 0 795 136" fill="none" xmlns="http://www.w3.org/2000/svg">
<g clip-path="url(#clip0_2151_18)">
<rect width="795" height="136" fill="white"/>
<path d="M82 88.7291C82 69.6753 66.5538 54.2291 47.5 54.2291C28.4462 54.2291 13 69.6753 13 88.7291C13 107.783 28.4462 123.229 47.5 123.229V136.229C21.2665 136.229 0 114.963 0 88.7291C0 62.4956 21.2665 41.2291 47.5 41.2291C73.7335 41.2291 95 62.4956 95 88.7291C95 114.963 73.7335 136.229 47.5 136.229V123.229C66.5538 123.229 82 107.783 82 88.7291Z" fill="#484848"/>
<path d="M40 27.7291C40 23.5869 43.3579 20.2291 47.5 20.2291C51.6421 20.2291 55 23.5869 55 27.7291V44.7291C55 48.8712 51.6421 52.2291 47.5 52.2291C43.3579 52.2291 40 48.8712 40 44.7291V27.7291Z" fill="#484848"/>
<path d="M50 76.7291C50 72.5869 53.3579 69.2291 57.5 69.2291C61.6421 69.2291 65 72.5869 65 76.7291C65 80.8712 61.6421 84.2291 57.5 84.2291C53.3579 84.2291 50 80.8712 50 76.7291Z" fill="#484848"/>
<path d="M25 91.7291C25 87.5869 28.3579 84.2291 32.5 84.2291C36.6421 84.2291 40 87.5869 40 91.7291C40 95.8712 36.6421 99.2291 32.5 99.2291C28.3579 99.2291 25 95.8712 25 91.7291Z" fill="#484848"/>
<path d="M24.4045 27.3748C22.5242 22.4766 24.9708 16.9816 29.869 15.1013L59.7436 3.63355C64.6418 1.7533 70.1368 4.19984 72.0171 9.09807C73.8973 13.9963 71.4508 19.4913 66.5526 21.3716L36.678 32.8393C31.7798 34.7196 26.2847 32.2731 24.4045 27.3748Z" fill="#484848"/>
<path d="M47.5 54.2291C58.008 54.2291 72.6882 58.6694 81.5731 65.9544C83.0074 67.1304 83.7246 67.7185 83.9046 69.337C84.0152 70.3315 83.4391 71.9427 82.723 72.6416C81.5576 73.7791 80.3011 73.7791 77.7883 73.7791H16.7117C14.2378 73.7791 13.0008 73.7791 11.8344 72.6362C11.1196 71.9359 10.5454 70.3144 10.6602 69.3203C10.8475 67.6981 11.5522 67.1275 12.9615 65.9862C21.9813 58.6823 36.9767 54.2291 47.5 54.2291Z" fill="#484848"/>
<path d="M152.84 35.2491C152.84 32.8956 152.84 31.7189 153.32 30.8297C153.69 30.1429 154.254 29.5795 154.94 29.2089C155.83 28.7291 157.006 28.7291 159.36 28.7291H165.51C167.863 28.7291 169.04 28.7291 169.929 29.2089C170.616 29.5795 171.18 30.1429 171.55 30.8297C172.03 31.7189 172.03 32.8956 172.03 35.2491V88.7091C172.03 91.0627 172.03 92.2394 171.55 93.1286C171.18 93.8154 170.616 94.3788 169.929 94.7494C169.04 95.2291 167.863 95.2291 165.51 95.2291H159.36C157.006 95.2291 155.83 95.2291 154.94 94.7494C154.254 94.3788 153.69 93.8154 153.32 93.1286C152.84 92.2394 152.84 91.0627 152.84 88.7091V35.2491ZM191.642 31.0343C192.382 30.1605 192.752 29.7236 193.208 29.4154C193.564 29.1751 193.955 28.9935 194.368 28.8777C194.898 28.7291 195.471 28.7291 196.616 28.7291H200.992C205.616 28.7291 207.928 28.7291 209.057 29.7121C209.916 30.4597 210.416 31.5379 210.431 32.6764C210.451 34.1733 208.956 35.9372 205.966 39.4648L192.1 55.8247C190.834 57.318 190.201 58.0646 189.966 58.9094C189.784 59.5641 189.772 60.2545 189.93 60.9154C190.135 61.7681 190.74 62.5369 191.951 64.0746L208.177 84.6749C210.926 88.165 212.3 89.91 212.245 91.3803C212.202 92.4996 211.693 93.5499 210.84 94.2757C209.719 95.2291 207.498 95.2291 203.055 95.2291H197.324C196.128 95.2291 195.531 95.2291 194.981 95.0686C194.553 94.9435 194.149 94.7475 193.785 94.4889C193.318 94.1572 192.948 93.688 192.207 92.7497L170.015 64.6452C168.801 63.1074 168.194 62.3385 167.988 61.4853C167.829 60.8241 167.841 60.1331 168.023 59.4778C168.258 58.6322 168.891 57.8847 170.158 56.3898L191.642 31.0343Z" fill="#484848"/>
<path d="M216.298 73.3792C216.298 68.6925 217.407 64.6392 219.623 61.2192C221.84 57.7992 224.88 55.1708 228.743 53.3342C232.67 51.4342 237.072 50.4841 241.948 50.4841C246.888 50.4841 251.29 51.4342 255.153 53.3342C259.017 55.1708 262.057 57.7992 264.273 61.2192C266.553 64.6392 267.693 68.6925 267.693 73.3792C267.693 78.0025 266.553 82.0242 264.273 85.4442C262.057 88.8642 259.017 91.5241 255.153 93.4241C251.29 95.2608 246.888 96.1792 241.948 96.1792C237.072 96.1792 232.67 95.2608 228.743 93.4241C224.88 91.5241 221.84 88.8642 219.623 85.4442C217.407 82.0242 216.298 78.0025 216.298 73.3792ZM233.208 73.3792C233.208 75.4058 233.588 77.1475 234.348 78.6041C235.172 79.9975 236.248 81.0742 237.578 81.8342C238.908 82.5308 240.365 82.8792 241.948 82.8792C243.532 82.8792 244.988 82.5308 246.318 81.8342C247.648 81.0742 248.725 79.9975 249.548 78.6041C250.372 77.1475 250.783 75.4058 250.783 73.3792C250.783 71.3525 250.372 69.6425 249.548 68.2492C248.725 66.7925 247.648 65.6841 246.318 64.9241C244.988 64.1641 243.532 63.7841 241.948 63.7841C240.365 63.7841 238.908 64.1641 237.578 64.9241C236.248 65.6841 235.172 66.7925 234.348 68.2492C233.588 69.6425 233.208 71.3525 233.208 73.3792Z" fill="#484848"/>
<path d="M285.262 51.5292C287.615 51.5292 288.792 51.5292 289.681 52.0089C290.368 52.3795 290.931 52.9429 291.302 53.6297C291.782 54.5189 291.782 55.6956 291.782 58.0492V88.7091C291.782 91.0627 291.782 92.2394 291.302 93.1286C290.931 93.8154 290.368 94.3788 289.681 94.7494C288.792 95.2291 287.615 95.2291 285.262 95.2291H282.247C279.893 95.2291 278.717 95.2291 277.827 94.7494C277.141 94.3788 276.577 93.8154 276.207 93.1286C275.727 92.2394 275.727 91.0627 275.727 88.7091V58.0492C275.727 55.6956 275.727 54.5189 276.207 53.6297C276.577 52.9429 277.141 52.3795 277.827 52.0089C278.717 51.5292 279.893 51.5292 282.247 51.5292H285.262ZM305.532 65.6431C304.906 66.9379 303.138 67.1823 301.852 66.5392V66.5392C301.028 66.0325 299.983 65.7792 298.717 65.7792C297.45 65.7792 296.278 66.1275 295.202 66.8242C294.125 67.5208 293.27 68.5658 292.637 69.9592V69.9592C292.12 71.2235 289.95 71.6724 289.318 70.4612L288.556 69.0009C288.428 68.7567 288.361 68.4851 288.365 68.2097C288.419 64.8962 289.115 61.9327 290.452 59.3192C291.845 56.5958 293.682 54.4425 295.962 52.8591C298.305 51.2125 300.743 50.3891 303.277 50.3891C304.86 50.3891 306.38 50.7692 307.837 51.5292C308.012 51.613 308.182 51.6997 308.346 51.7891C308.735 52.0003 308.929 52.1059 309.476 52.9171C309.759 53.3375 310.142 54.5277 310.157 55.0344C310.186 56.0121 309.948 56.5048 309.472 57.49L305.532 65.6431Z" fill="#484848"/>
<path d="M330.128 81.5491C330.128 82.4991 330.349 83.3225 330.793 84.0191C331.299 84.6525 331.964 85.1592 332.788 85.5392C333.611 85.8558 334.498 86.0142 335.448 86.0142C336.841 86.0142 338.171 85.7291 339.438 85.1591C340.704 84.5258 341.718 83.5758 342.478 82.3092C343.301 80.9792 344.553 78.2242 344.5 77.8442L345.233 83.0692C345.233 85.8558 344.504 88.2308 343.048 90.1942C341.654 92.1575 339.723 93.6458 337.253 94.6591C334.846 95.6725 332.186 96.1792 329.273 96.1792C326.486 96.1792 323.889 95.6725 321.483 94.6591C319.139 93.5825 317.239 92.0308 315.783 90.0042C314.326 87.9142 313.598 85.3808 313.598 82.4042C313.598 78.2242 315.054 74.9308 317.968 72.5242C320.944 70.1175 325.219 68.9142 330.793 68.9142C333.199 68.9142 335.448 69.1358 337.538 69.5792C339.691 70.0225 341.559 70.6241 343.143 71.3841C344.33 71.8865 345.304 72.4384 346.063 73.0396C346.6 73.4648 346.848 74.1399 346.848 74.825V75.3019C346.848 77.4275 344.134 78.8349 342.098 78.2242V78.2242C340.198 77.6542 338.203 77.3691 336.113 77.3691C334.656 77.3691 333.484 77.5275 332.598 77.8442C331.711 78.1608 331.078 78.6358 330.698 79.2691C330.318 79.8392 330.128 80.5991 330.128 81.5491ZM325.188 64.5442C323.508 65.2015 321.484 64.5108 320.695 62.8889L319.524 60.483C318.841 59.0803 318.5 58.3789 318.431 57.6587C318.31 56.3911 318.914 54.9595 319.906 54.1616C320.47 53.7082 321.141 53.4865 322.482 53.0431C323.764 52.619 325.11 52.2094 326.518 51.8142C330.191 50.7375 334.086 50.1992 338.203 50.1992C342.193 50.1992 345.771 50.7691 348.938 51.9091C352.168 52.9858 354.701 54.6008 356.538 56.7542C358.438 58.9075 359.388 61.5358 359.388 64.6392V88.7091C359.388 91.0627 359.388 92.2394 358.908 93.1286C358.537 93.8154 357.974 94.3788 357.287 94.7494C356.398 95.2291 355.221 95.2291 352.868 95.2291H350.233C347.879 95.2291 346.702 95.2291 345.813 94.7494C345.126 94.3788 344.563 93.8154 344.192 93.1286C343.713 92.2394 343.713 91.0627 343.713 88.7091V68.5341C343.713 67.5842 343.554 66.7291 343.238 65.9691C342.984 65.2091 342.541 64.5758 341.908 64.0692C341.274 63.4992 340.451 63.0875 339.438 62.8342C338.424 62.5175 337.253 62.3592 335.923 62.3592C334.086 62.3592 332.186 62.5808 330.223 63.0242C328.323 63.4675 326.644 63.9742 325.188 64.5442V64.5442Z" fill="#484848"/>
<path d="M397.926 68.6292C397.926 66.3491 397.546 64.6075 396.786 63.4042C396.026 62.1375 394.569 61.5042 392.416 61.5042C391.149 61.5042 390.009 61.7575 388.996 62.2642C388.046 62.7708 387.286 63.5625 386.716 64.6392C386.209 65.7158 385.956 67.0458 385.956 68.6292V88.7091C385.956 91.0627 385.956 92.2394 385.476 93.1286C385.105 93.8154 384.542 94.3788 383.855 94.7494C382.966 95.2291 381.789 95.2291 379.436 95.2291H376.041C373.687 95.2291 372.51 95.2291 371.621 94.7494C370.935 94.3788 370.371 93.8154 370 93.1286C369.521 92.2394 369.521 91.0627 369.521 88.7091V58.0492C369.521 55.6956 369.521 54.5189 370 53.6297C370.371 52.9429 370.935 52.3795 371.621 52.0089C372.51 51.5292 373.687 51.5292 376.041 51.5292H384.673C385.382 51.5292 385.956 52.1033 385.956 52.8116V52.8116C385.956 54.1497 388.126 54.8193 389.135 53.9397C389.708 53.4394 390.327 52.9842 390.991 52.5742C393.207 51.1808 395.994 50.4841 399.351 50.4841C405.051 50.4841 409.104 51.9408 411.511 54.8542C413.917 57.7042 415.121 61.7258 415.121 66.9192V88.7091C415.121 91.0627 415.121 92.2394 414.641 93.1286C414.27 93.8154 413.707 94.3788 413.02 94.7494C412.131 95.2291 410.954 95.2291 408.601 95.2291H404.446C402.092 95.2291 400.915 95.2291 400.026 94.7494C399.34 94.3788 398.776 93.8154 398.405 93.1286C397.926 92.2394 397.926 91.0627 397.926 88.7091V68.6292Z" fill="#484848"/>
<path d="M425.975 105.535C425.233 103.696 424.862 102.776 425.155 101.539C425.348 100.723 426.054 99.6773 426.738 99.1934C427.776 98.4592 429.03 98.4592 431.537 98.4592H435.593C436.336 98.4592 436.708 98.4592 436.962 98.4918C438.357 98.6712 438.34 98.6627 439.32 99.6705C439.498 99.8542 440.171 100.751 441.516 102.544V102.544C442.276 103.557 443.289 104.286 444.556 104.729C445.823 105.172 447.216 105.394 448.736 105.394C450.699 105.394 452.409 104.951 453.866 104.064C455.386 103.241 456.558 102.006 457.381 100.359C458.268 98.7125 458.711 96.6858 458.711 94.2792V58.0492C458.711 55.6956 458.711 54.5189 459.191 53.6297C459.561 52.9429 460.125 52.3795 460.811 52.0089C461.701 51.5292 462.877 51.5292 465.231 51.5292H467.866C470.219 51.5292 471.396 51.5292 472.285 52.0089C472.972 52.3795 473.536 52.9429 473.906 53.6297C474.386 54.5189 474.386 55.6956 474.386 58.0492V94.2792C474.386 100.042 473.278 104.666 471.061 108.149C468.844 111.696 465.868 114.261 462.131 115.844C458.458 117.427 454.278 118.219 449.591 118.219C443.764 118.219 439.078 117.396 435.531 115.749C431.984 114.102 429.324 111.759 427.551 108.719C426.949 107.709 426.424 106.648 425.975 105.535ZM423.276 72.6191C423.276 67.6158 424.258 63.4992 426.221 60.2691C428.248 57.0391 430.813 54.6325 433.916 53.0491C437.083 51.4025 440.376 50.5792 443.796 50.5792C447.469 50.5792 450.731 51.4341 453.581 53.1441C456.431 54.8542 458.679 57.3558 460.326 60.6491C462.036 63.8791 462.891 67.8691 462.891 72.6191C462.891 77.3058 462.036 81.2958 460.326 84.5891C458.679 87.8825 456.431 90.3842 453.581 92.0942C450.731 93.8042 447.469 94.6591 443.796 94.6591C440.376 94.6591 437.083 93.8675 433.916 92.2841C430.813 90.6375 428.248 88.1992 426.221 84.9692C424.258 81.6758 423.276 77.5591 423.276 72.6191ZM440.566 72.6191C440.566 74.5191 440.978 76.1658 441.801 77.5592C442.624 78.9525 443.733 79.9975 445.126 80.6942C446.519 81.3908 448.039 81.7392 449.686 81.7392C451.143 81.7392 452.568 81.4225 453.961 80.7892C455.354 80.0925 456.494 79.0792 457.381 77.7492C458.268 76.4192 458.711 74.7091 458.711 72.6191C458.711 71.0358 458.458 69.6741 457.951 68.5341C457.444 67.3941 456.748 66.4442 455.861 65.6842C454.974 64.9242 453.993 64.3858 452.916 64.0692C451.839 63.6892 450.763 63.4992 449.686 63.4992C448.039 63.4992 446.519 63.8475 445.126 64.5442C443.733 65.2408 442.624 66.2858 441.801 67.6792C440.978 69.0092 440.566 70.6558 440.566 72.6191Z" fill="#484848"/>
<path d="M508.403 96.1792C503.019 96.1792 498.364 95.2608 494.438 93.4241C490.574 91.5241 487.598 88.8958 485.508 85.5392C483.418 82.1192 482.373 78.0658 482.373 73.3792C482.373 68.6292 483.386 64.5758 485.413 61.2192C487.439 57.7992 490.353 55.1708 494.153 53.3342C497.953 51.4975 502.513 50.5792 507.833 50.5792C513.153 50.5792 517.618 51.4341 521.228 53.1441C524.838 54.8542 527.593 57.3558 529.493 60.6491C531.393 63.8791 532.343 67.8691 532.343 72.6191C532.343 73.3791 532.311 74.1392 532.248 74.8992V74.8992C532.248 75.9827 531.333 76.7991 530.249 76.7991H495.625C495.414 76.7991 495.308 76.7991 495.219 76.7952C493.15 76.7027 491.494 75.0465 491.402 72.9778C491.398 72.8885 491.398 72.7829 491.398 72.5716V72.5716C491.398 72.3604 491.398 72.2548 491.402 72.1655C491.494 70.0968 493.15 68.4406 495.219 68.3481C495.308 68.3441 495.414 68.3441 495.625 68.3441H516.651C517.117 68.3441 517.353 68.9056 517.027 69.239L514.966 71.3457C514.793 71.5231 514.39 71.2346 514.483 71.0042V71.0042C514.736 70.3708 514.863 69.8325 514.863 69.3892C514.863 67.6158 514.546 66.1275 513.913 64.9241C513.343 63.6575 512.488 62.7075 511.348 62.0742C510.271 61.3775 508.973 61.0292 507.453 61.0292C505.553 61.0292 503.969 61.4725 502.703 62.3592C501.436 63.2458 500.486 64.6075 499.853 66.4442C499.219 68.2175 498.903 70.4975 498.903 73.2841C498.839 75.7541 499.156 77.8442 499.853 79.5542C500.549 81.2642 501.563 82.5942 502.893 83.5442C504.223 84.4308 505.869 84.8742 507.833 84.8742C510.239 84.8742 512.266 84.4625 513.913 83.6392C514.187 83.497 514.451 83.3452 514.705 83.1836C517.258 81.563 518.534 80.7527 518.991 80.5983C519.575 80.4011 519.48 80.4188 520.095 80.3918C520.577 80.3707 521.213 80.4971 522.486 80.7499L524.192 81.089C526.944 81.6358 528.32 81.9092 529.23 83.0313C529.812 83.7491 530.21 85.1645 530.088 86.0806C529.897 87.5126 529.105 88.2422 527.522 89.7015C526.19 90.9295 524.725 91.9804 523.128 92.8541C519.138 95.0708 514.229 96.1792 508.403 96.1792Z" fill="#484848"/>
<path d="M541.327 33.9799C541.71 32.0515 541.902 31.0873 542.419 30.3758C542.82 29.8243 543.356 29.3846 543.975 29.0984C544.774 28.7291 545.757 28.7291 547.723 28.7291H549.487C552.806 28.7291 554.466 28.7291 555.502 29.4594C556.297 30.0192 556.86 30.8491 557.087 31.794C557.384 33.0266 556.771 34.5693 555.547 37.6546L550.765 49.7003C550.232 51.0422 549.966 51.7131 549.534 52.2187C549.069 52.7629 548.466 53.1722 547.788 53.4039C547.159 53.6192 546.437 53.6192 544.993 53.6192V53.6192C542.535 53.6192 541.305 53.6192 540.426 53.1521C539.482 52.6513 538.779 51.794 538.471 50.7711C538.184 49.8174 538.423 48.6116 538.902 46.2002L541.327 33.9799Z" fill="#484848"/>
<path d="M560.59 84.8774C561.62 82.948 562.135 81.9834 562.787 81.4666C563.681 80.7574 564.57 80.5009 565.705 80.6245C566.531 80.7145 567.628 81.3402 569.822 82.5916C570.183 82.7977 570.534 82.9885 570.874 83.1642C572.837 84.1775 574.516 84.8425 575.909 85.1591C577.302 85.4758 578.379 85.6342 579.139 85.6342C580.342 85.6342 581.229 85.3808 581.799 84.8742C582.369 84.3675 582.654 83.6708 582.654 82.7841C582.654 82.0241 582.401 81.3908 581.894 80.8842C581.451 80.3142 580.564 79.7441 579.234 79.1741C577.967 78.6041 576.067 77.9075 573.534 77.0842C571.444 76.3875 569.449 75.5325 567.549 74.5191C565.649 73.4425 564.097 72.0175 562.894 70.2441C561.754 68.4075 561.184 66.0641 561.184 63.2141C561.184 60.4908 561.912 58.2108 563.369 56.3742C564.826 54.4742 566.821 53.0492 569.354 52.0992C571.887 51.0858 574.832 50.5792 578.189 50.5792C580.786 50.5792 583.192 50.8642 585.409 51.4342C587.689 51.9408 589.842 52.6375 591.869 53.5242C592.46 53.7643 593.049 54.0179 593.634 54.285C594.419 54.643 594.812 54.822 595.208 55.1431C596.251 55.9892 596.854 57.5771 596.635 58.9025C596.552 59.4055 596.344 59.8751 595.927 60.8143V60.8143C595.214 62.4223 594.857 63.2263 594.533 63.6315C593.442 64.9919 592.422 65.3749 590.706 65.0673C590.194 64.9756 589.127 64.4791 586.993 63.486C586.722 63.3595 586.447 63.2372 586.169 63.1191C583.699 61.9791 581.514 61.4091 579.614 61.4091C578.411 61.4091 577.524 61.6308 576.954 62.0742C576.447 62.5175 576.194 63.0558 576.194 63.6891C576.194 64.5758 576.574 65.3042 577.334 65.8742C578.094 66.3808 579.234 66.8875 580.754 67.3941C582.274 67.9008 584.206 68.5975 586.549 69.4841C588.766 70.3075 590.792 71.2575 592.629 72.3342C594.529 73.3475 596.049 74.6775 597.189 76.3242C598.392 77.9708 598.994 80.1558 598.994 82.8792C598.994 87.8192 597.506 91.4608 594.529 93.8042C591.616 96.1475 587.436 97.3192 581.989 97.3192C578.822 97.3192 575.814 97.0025 572.964 96.3692C570.177 95.7358 567.549 94.8492 565.079 93.7092C564.312 93.355 563.554 92.9856 562.805 92.6009C561.409 91.8841 560.711 91.5257 560.186 90.889C559.563 90.1326 559.205 88.9879 559.287 88.0111C559.356 87.1887 559.767 86.4183 560.59 84.8774V84.8774Z" fill="#484848"/>
<path d="M636.375 35.2491C636.375 32.8956 636.375 31.7189 636.855 30.8297C637.225 30.1429 637.789 29.5795 638.476 29.2089C639.365 28.7291 640.541 28.7291 642.895 28.7291H648.285C650.639 28.7291 651.815 28.7291 652.704 29.2089C653.391 29.5795 653.955 30.1429 654.325 30.8297C654.805 31.7189 654.805 32.8956 654.805 35.2491V73.0341C654.805 75.3877 654.805 76.5645 655.285 77.4536C655.655 78.1404 656.219 78.7038 656.906 79.0744C657.795 79.5542 658.971 79.5542 661.325 79.5542H675.17C677.524 79.5542 678.7 79.5542 679.589 80.0339C680.276 80.4045 680.84 80.9679 681.21 81.6547C681.69 82.5439 681.69 83.7206 681.69 86.0742V88.7091C681.69 91.0627 681.69 92.2394 681.21 93.1286C680.84 93.8154 680.276 94.3788 679.589 94.7494C678.7 95.2291 677.524 95.2291 675.17 95.2291H642.895C640.541 95.2291 639.365 95.2291 638.476 94.7494C637.789 94.3788 637.225 93.8154 636.855 93.1286C636.375 92.2394 636.375 91.0627 636.375 88.7091V35.2491Z" fill="#484848"/>
<path d="M700.479 81.5491C700.479 82.4991 700.701 83.3225 701.144 84.0191C701.651 84.6525 702.316 85.1592 703.139 85.5392C703.963 85.8558 704.849 86.0142 705.799 86.0142C707.193 86.0142 708.523 85.7291 709.789 85.1591C711.056 84.5258 712.069 83.5758 712.829 82.3092C713.653 80.9792 715.584 76.4634 715.584 74.5001V83.0692C715.584 85.8558 714.856 88.2308 713.399 90.1942C712.006 92.1575 710.074 93.6458 707.604 94.6591C705.198 95.6725 702.538 96.1792 699.624 96.1792C696.838 96.1792 694.241 95.6725 691.834 94.6591C689.491 93.5825 687.591 92.0308 686.134 90.0042C684.678 87.9142 683.949 85.3808 683.949 82.4042C683.949 78.2242 685.406 74.9308 688.319 72.5242C691.296 70.1175 695.571 68.9142 701.144 68.9142C703.551 68.9142 705.799 69.1358 707.889 69.5792C710.043 70.0225 711.911 70.6241 713.494 71.3841C714.682 71.8865 715.655 72.4384 716.414 73.0396C716.952 73.4648 717.199 74.1399 717.199 74.825V75.3019C717.199 77.4275 714.485 78.8349 712.449 78.2242V78.2242C710.549 77.6542 708.554 77.3691 706.464 77.3691C705.008 77.3691 703.836 77.5275 702.949 77.8442C702.063 78.1608 701.429 78.6358 701.049 79.2691C700.669 79.8392 700.479 80.5991 700.479 81.5491ZM695.539 64.5442C693.859 65.2015 691.836 64.5108 691.046 62.8889L689.875 60.4831C689.192 59.0803 688.851 58.3789 688.782 57.6587C688.661 56.3911 689.266 54.9595 690.258 54.1616C690.822 53.7082 691.492 53.4865 692.833 53.0431C694.116 52.619 695.461 52.2094 696.869 51.8142C700.543 50.7375 704.438 50.1992 708.554 50.1992C712.544 50.1992 716.123 50.7691 719.289 51.9091C722.519 52.9858 725.053 54.6008 726.889 56.7542C728.789 58.9075 729.739 61.5358 729.739 64.6392V88.7091C729.739 91.0627 729.739 92.2394 729.26 93.1286C728.889 93.8154 728.326 94.3788 727.639 94.7494C726.75 95.2291 725.573 95.2291 723.219 95.2291H720.584C718.231 95.2291 717.054 95.2291 716.165 94.7494C715.478 94.3788 714.915 93.8154 714.544 93.1286C714.064 92.2394 714.064 91.0627 714.064 88.7091V68.5341C714.064 67.5842 713.906 66.7291 713.589 65.9691C713.336 65.2091 712.893 64.5758 712.259 64.0692C711.626 63.4992 710.803 63.0875 709.789 62.8342C708.776 62.5175 707.604 62.3592 706.274 62.3592C704.438 62.3592 702.538 62.5808 700.574 63.0242C698.674 63.4675 696.996 63.9742 695.539 64.5442V64.5442Z" fill="#484848"/>
<path d="M749.692 21.1292C752.046 21.1292 753.223 21.1292 754.112 21.6089C754.799 21.9795 755.362 22.5429 755.733 23.2297C756.212 24.1189 756.212 25.2956 756.212 27.6492V88.7092C756.212 91.0627 756.212 92.2394 755.733 93.1286C755.362 93.8154 754.799 94.3788 754.112 94.7494C753.223 95.2291 752.046 95.2291 749.692 95.2291H746.297C743.944 95.2291 742.767 95.2291 741.878 94.7494C741.191 94.3788 740.628 93.8154 740.257 93.1286C739.777 92.2394 739.777 91.0627 739.777 88.7091V27.6491C739.777 25.2956 739.777 24.1189 740.257 23.2297C740.628 22.5429 741.191 21.9795 741.878 21.6089C742.767 21.1292 743.944 21.1292 746.297 21.1292H749.692ZM791.647 73.3792C791.647 78.3191 790.634 82.4992 788.607 85.9192C786.644 89.2758 784.111 91.8408 781.007 93.6142C777.904 95.3242 774.611 96.1792 771.127 96.1792C767.517 96.1792 764.256 95.2608 761.342 93.4241C758.492 91.5875 756.212 88.9592 754.502 85.5392C752.856 82.1192 752.032 78.0658 752.032 73.3792C752.032 68.6292 752.856 64.5758 754.502 61.2192C756.212 57.7992 758.492 55.1708 761.342 53.3342C764.256 51.4975 767.517 50.5792 771.127 50.5792C774.611 50.5792 777.904 51.4658 781.007 53.2392C784.111 54.9492 786.644 57.4825 788.607 60.8391C790.634 64.1958 791.647 68.3758 791.647 73.3792ZM774.357 73.3792C774.357 71.4158 773.946 69.7058 773.122 68.2492C772.299 66.7292 771.191 65.5575 769.797 64.7342C768.404 63.9108 766.852 63.4992 765.142 63.4992C763.686 63.4992 762.261 63.9108 760.867 64.7342C759.537 65.4942 758.429 66.6025 757.542 68.0592C756.656 69.5158 756.212 71.2891 756.212 73.3792C756.212 75.4691 756.656 77.2425 757.542 78.6992C758.429 80.1558 759.537 81.2958 760.867 82.1191C762.261 82.8791 763.686 83.2592 765.142 83.2592C766.852 83.2592 768.404 82.8475 769.797 82.0242C771.191 81.2008 772.299 80.0291 773.122 78.5091C773.946 76.9891 774.357 75.2792 774.357 73.3792Z" fill="#484848"/>
<path d="M184.265 121.492C183.385 120.37 181.584 120.992 181.584 122.417V127.883C181.584 128.711 180.912 129.383 180.084 129.383H177.564C176.736 129.383 176.064 128.711 176.064 127.883V111.93C176.064 110.665 177.534 109.968 178.514 110.768L186.504 117.296C187.055 117.747 187.848 117.747 188.4 117.297L196.418 110.762C197.398 109.964 198.866 110.661 198.866 111.925V127.883C198.866 128.711 198.194 129.383 197.366 129.383H194.846C194.018 129.383 193.346 128.711 193.346 127.883V122.402C193.346 120.978 191.548 120.355 190.668 121.474L188.633 124.059C188.032 124.823 186.873 124.822 186.274 124.056L184.265 121.492Z" fill="#484848"/>
<path d="M204.976 125.344C204.976 125.624 205.038 125.867 205.163 126.073C205.306 126.26 205.494 126.41 205.726 126.522C205.958 126.615 206.208 126.662 206.476 126.662C206.869 126.662 207.244 126.578 207.601 126.41C207.959 126.223 208.244 125.942 208.459 125.568V125.568C208.573 125.376 209.126 125.363 209.182 125.58L209.229 125.767C209.233 125.784 209.236 125.802 209.236 125.82C209.231 126.631 209.026 127.323 208.619 127.896C208.227 128.476 207.682 128.915 206.985 129.215C206.306 129.514 205.556 129.663 204.734 129.663C203.948 129.663 203.216 129.514 202.537 129.215C201.876 128.897 201.341 128.439 200.93 127.84C200.519 127.223 200.314 126.475 200.314 125.596C200.314 124.362 200.724 123.39 201.546 122.679C202.386 121.969 203.591 121.613 205.163 121.613C205.842 121.613 206.476 121.679 207.065 121.81C207.673 121.941 208.2 122.118 208.646 122.343C208.985 122.493 209.262 122.658 209.477 122.837C209.624 122.96 209.691 123.15 209.691 123.342V123.555C209.691 124.15 208.919 124.541 208.352 124.362V124.362C207.816 124.194 207.253 124.11 206.664 124.11C206.253 124.11 205.922 124.157 205.672 124.25C205.422 124.343 205.244 124.484 205.136 124.671C205.029 124.839 204.976 125.063 204.976 125.344ZM203.582 120.323C203.114 120.515 202.541 120.32 202.327 119.86L201.89 118.921C201.539 118.164 201.872 117.263 202.659 116.984C203.068 116.838 203.501 116.699 203.957 116.565C204.993 116.247 206.092 116.088 207.253 116.088C208.378 116.088 209.388 116.256 210.281 116.593C211.192 116.911 211.906 117.387 212.424 118.023C212.96 118.659 213.228 119.435 213.228 120.351V127.883C213.228 128.711 212.556 129.383 211.728 129.383H210.307C209.479 129.383 208.807 128.711 208.807 127.883V121.501C208.807 121.221 208.762 120.968 208.673 120.744C208.602 120.52 208.477 120.333 208.298 120.183C208.119 120.015 207.887 119.893 207.601 119.818C207.316 119.725 206.985 119.678 206.61 119.678C206.092 119.678 205.556 119.743 205.002 119.874C204.467 120.005 203.993 120.155 203.582 120.323V120.323Z" fill="#484848"/>
<path d="M216.059 109.005C216.059 108.176 216.731 107.505 217.559 107.505H218.98C219.808 107.505 220.48 108.176 220.48 109.005V127.883C220.48 128.711 219.808 129.383 218.98 129.383H217.559C216.731 129.383 216.059 128.711 216.059 127.883V109.005ZM224.487 116.928C224.769 116.642 225.154 116.48 225.555 116.48H226.836C228.167 116.48 228.839 118.085 227.905 119.033L226.083 120.882C225.559 121.414 225.506 122.251 225.96 122.845L229.114 126.972C229.868 127.959 229.164 129.383 227.922 129.383H226.304C225.841 129.383 225.404 129.169 225.12 128.804L220.484 122.847C220.022 122.254 220.071 121.409 220.599 120.873L224.487 116.928Z" fill="#484848"/>
<path d="M238.954 129.663C237.436 129.663 236.123 129.392 235.016 128.85C233.926 128.289 233.087 127.513 232.497 126.522C231.908 125.512 231.613 124.315 231.613 122.932C231.613 121.529 231.899 120.333 232.47 119.341C233.042 118.332 233.864 117.556 234.935 117.013C236.007 116.471 237.293 116.2 238.794 116.2C240.294 116.2 241.553 116.452 242.572 116.957C243.59 117.462 244.367 118.201 244.903 119.173C245.438 120.127 245.706 121.305 245.706 122.707C245.706 122.932 245.697 123.156 245.68 123.38V123.38C245.68 123.7 245.41 123.941 245.091 123.941H235.407C234.717 123.941 234.158 123.383 234.158 122.693V122.693C234.158 122.004 234.717 121.445 235.407 121.445H241.303C241.467 121.445 241.549 121.645 241.431 121.76L240.83 122.345C240.768 122.405 240.638 122.311 240.669 122.23V122.23C240.741 122.043 240.776 121.885 240.776 121.754C240.776 121.23 240.687 120.791 240.508 120.435C240.348 120.061 240.107 119.781 239.785 119.594C239.481 119.388 239.115 119.285 238.686 119.285C238.151 119.285 237.704 119.416 237.347 119.678C236.99 119.94 236.722 120.342 236.543 120.884C236.364 121.408 236.275 122.081 236.275 122.904C236.257 123.633 236.347 124.25 236.543 124.755C236.739 125.26 237.025 125.652 237.4 125.933C237.776 126.195 238.24 126.326 238.794 126.326C239.472 126.326 240.044 126.204 240.508 125.961C240.659 125.879 240.799 125.787 240.928 125.684C241.443 125.273 242.074 124.931 242.718 125.065L243.91 125.312C244.872 125.513 245.391 126.586 244.747 127.329C244.271 127.878 243.724 128.329 243.107 128.682C241.982 129.336 240.598 129.663 238.954 129.663Z" fill="#484848"/>
<path d="M247.948 126.111C248.379 125.266 249.468 125.045 250.273 125.548C250.435 125.65 250.59 125.741 250.739 125.821C251.292 126.12 251.766 126.316 252.159 126.41C252.552 126.503 252.855 126.55 253.07 126.55C253.409 126.55 253.659 126.475 253.82 126.326C253.981 126.176 254.061 125.97 254.061 125.709C254.061 125.484 253.99 125.297 253.847 125.148C253.722 124.979 253.472 124.811 253.097 124.643C252.739 124.474 252.203 124.269 251.489 124.026C250.899 123.82 250.337 123.567 249.801 123.268C249.265 122.95 248.827 122.53 248.488 122.006C248.167 121.464 248.006 120.772 248.006 119.93C248.006 119.126 248.211 118.453 248.622 117.911C249.033 117.35 249.596 116.929 250.31 116.649C251.024 116.35 251.855 116.2 252.802 116.2C253.534 116.2 254.213 116.284 254.838 116.452C255.481 116.602 256.088 116.808 256.66 117.07C256.844 117.148 257.028 117.231 257.21 117.319C257.88 117.643 258.133 118.447 257.842 119.133L257.81 119.209C257.406 120.163 256.162 120.428 255.227 119.983C255.169 119.955 255.111 119.928 255.052 119.902C254.356 119.566 253.74 119.398 253.204 119.398C252.864 119.398 252.614 119.463 252.453 119.594C252.311 119.725 252.239 119.884 252.239 120.071C252.239 120.333 252.346 120.548 252.561 120.716C252.775 120.865 253.097 121.015 253.525 121.165C253.954 121.314 254.499 121.52 255.16 121.782C255.785 122.025 256.356 122.305 256.874 122.623C257.41 122.922 257.839 123.315 258.16 123.801C258.5 124.287 258.67 124.933 258.67 125.737C258.67 127.195 258.25 128.27 257.41 128.962C256.589 129.654 255.419 130 253.9 130C252.989 130 252.132 129.907 251.328 129.72C250.542 129.533 249.801 129.271 249.104 128.934C248.808 128.791 248.517 128.64 248.231 128.48C247.567 128.109 247.355 127.274 247.7 126.597L247.948 126.111Z" fill="#484848"/>
<path d="M263.859 107.505C264.688 107.505 265.359 108.176 265.359 109.005V127.883C265.359 128.711 264.688 129.383 263.859 129.383H262.224C261.396 129.383 260.724 128.711 260.724 127.883V109.005C260.724 108.176 261.396 107.505 262.224 107.505H263.859ZM268.735 121.529C268.735 120.856 268.628 120.342 268.414 119.987C268.199 119.613 267.789 119.426 267.181 119.426C266.824 119.426 266.503 119.51 266.217 119.678C265.949 119.828 265.734 120.061 265.574 120.379C265.468 120.601 265.401 120.868 265.374 121.181C265.357 121.373 265.203 121.529 265.011 121.529V121.529C264.819 121.529 264.662 121.373 264.669 121.181C264.699 120.289 264.849 119.47 265.118 118.724C265.422 117.883 265.895 117.21 266.538 116.705C267.199 116.2 268.065 115.948 269.137 115.948C270.209 115.948 271.048 116.135 271.656 116.509C272.263 116.883 272.701 117.434 272.969 118.163C273.237 118.874 273.371 119.753 273.371 120.8V127.883C273.371 128.711 272.699 129.383 271.871 129.383H270.235C269.407 129.383 268.735 128.711 268.735 127.883V121.529Z" fill="#484848"/>
<path d="M275.997 111.796C275.997 111.048 276.247 110.441 276.747 109.973C277.265 109.506 277.882 109.272 278.596 109.272C279.328 109.272 279.945 109.506 280.445 109.973C280.963 110.441 281.222 111.048 281.222 111.796C281.222 112.526 280.963 113.124 280.445 113.591C279.945 114.059 279.328 114.293 278.596 114.293C277.882 114.293 277.265 114.059 276.747 113.591C276.247 113.124 275.997 112.526 275.997 111.796ZM276.372 117.98C276.372 117.152 277.044 116.48 277.872 116.48H279.32C280.148 116.48 280.82 117.152 280.82 117.98V127.883C280.82 128.711 280.148 129.383 279.32 129.383H277.872C277.044 129.383 276.372 128.711 276.372 127.883V117.98Z" fill="#484848"/>
<path d="M282.702 117.98C282.702 117.152 283.374 116.48 284.202 116.48H290.285C291.114 116.48 291.785 117.152 291.785 117.98V118.907C291.785 119.736 291.114 120.407 290.285 120.407H284.202C283.374 120.407 282.702 119.736 282.702 118.907V117.98ZM291.594 111.315C291.433 111.632 290.996 111.664 290.687 111.488V111.488C290.49 111.357 290.276 111.291 290.044 111.291C289.776 111.291 289.543 111.357 289.347 111.488C289.168 111.6 289.025 111.787 288.918 112.049C288.811 112.292 288.757 112.61 288.757 113.002V127.883C288.757 128.711 288.086 129.383 287.257 129.383H285.837C285.008 129.383 284.337 128.711 284.337 127.883V111.712C284.337 110.759 284.515 109.936 284.872 109.244C285.248 108.533 285.801 107.982 286.534 107.589C287.266 107.196 288.186 107 289.293 107C289.99 107 290.571 107.084 291.035 107.252C291.517 107.421 291.919 107.626 292.241 107.87V107.87C292.719 108.231 292.831 108.881 292.56 109.415L291.594 111.315Z" fill="#484848"/>
<path d="M292.196 117.98C292.196 117.152 292.867 116.48 293.696 116.48H299.564C300.393 116.48 301.064 117.152 301.064 117.98V118.907C301.064 119.736 300.393 120.407 299.564 120.407H293.696C292.867 120.407 292.196 119.736 292.196 118.907V117.98ZM294.42 113.493C294.42 112.664 295.091 111.993 295.92 111.993H297.341C298.169 111.993 298.841 112.664 298.841 113.493V127.883C298.841 128.711 298.169 129.383 297.341 129.383H295.92C295.091 129.383 294.42 128.711 294.42 127.883V113.493Z" fill="#484848"/>
<path d="M163.684 117.058C164.505 116.644 165.502 117.06 165.786 117.934L165.982 118.539C166.265 119.411 165.706 120.331 164.801 120.481L161.162 121.085C160.55 121.187 159.955 120.827 159.761 120.237V120.237C159.566 119.646 159.833 119.001 160.389 118.72L163.684 117.058ZM163.973 122.98C164.627 123.633 164.54 124.716 163.79 125.257L163.283 125.622C162.538 126.16 161.489 125.906 161.071 125.088L159.386 121.794C159.108 121.249 159.271 120.583 159.769 120.229V120.229C160.259 119.88 160.93 119.936 161.355 120.361L163.973 122.98ZM158.449 125.088C158.031 125.906 156.982 126.16 156.237 125.622L155.73 125.257C154.98 124.716 154.893 123.633 155.547 122.98L158.165 120.361C158.59 119.936 159.261 119.88 159.751 120.229V120.229C160.249 120.583 160.412 121.249 160.134 121.794L158.449 125.088ZM154.719 120.481C153.814 120.331 153.255 119.411 153.538 118.539L153.734 117.934C154.018 117.06 155.015 116.644 155.836 117.058L159.131 118.72C159.687 119.001 159.954 119.646 159.759 120.237V120.237C159.565 120.827 158.97 121.187 158.358 121.085L154.719 120.481ZM157.972 115.528C157.832 114.619 158.535 113.8 159.454 113.8H160.066C160.985 113.8 161.688 114.619 161.548 115.528L160.988 119.168C160.895 119.775 160.373 120.222 159.76 120.222V120.222C159.147 120.222 158.625 119.775 158.532 119.168L157.972 115.528Z" fill="#484848"/>
<path d="M321.684 117.258C322.505 116.844 323.502 117.259 323.786 118.134L323.982 118.739C324.265 119.611 323.706 120.531 322.801 120.681L319.162 121.285C318.55 121.387 317.955 121.027 317.761 120.437V120.437C317.566 119.846 317.833 119.201 318.389 118.92L321.684 117.258ZM321.973 123.179C322.627 123.833 322.54 124.916 321.79 125.457L321.283 125.822C320.538 126.36 319.489 126.106 319.071 125.288L317.386 121.994C317.108 121.449 317.271 120.783 317.769 120.429V120.429C318.259 120.08 318.93 120.136 319.355 120.561L321.973 123.179ZM316.449 125.288C316.031 126.106 314.982 126.36 314.237 125.822L313.73 125.457C312.98 124.916 312.893 123.833 313.547 123.179L316.165 120.561C316.59 120.136 317.261 120.08 317.751 120.429V120.429C318.249 120.783 318.412 121.449 318.134 121.994L316.449 125.288ZM312.719 120.681C311.814 120.531 311.255 119.611 311.538 118.739L311.734 118.134C312.018 117.259 313.015 116.844 313.836 117.258L317.131 118.92C317.687 119.201 317.954 119.846 317.759 120.437V120.437C317.565 121.027 316.97 121.387 316.358 121.285L312.719 120.681ZM315.972 115.728C315.832 114.819 316.535 114 317.454 114H318.066C318.985 114 319.688 114.819 319.548 115.728L318.988 119.368C318.895 119.975 318.373 120.422 317.76 120.422V120.422C317.147 120.422 316.625 119.975 316.532 119.368L315.972 115.728Z" fill="#484848"/>
</g>
<defs>
<clipPath id="clip0_2151_18">
<rect width="795" height="136" fill="white"/>
</clipPath>
</defs>
</svg>
